# xmcd
#
# Track frame offsets:
#       150
#       15136
#       30724
#       45009
#       66264
#       82117
#       99094
#       113471
#       123058
#       141397
#       154068
#       177468
#       194336
#       206258
#       219265
#       234155
#       250589
#       264992
#       282694
#       302151
#       320080
#       338130
#
# Disc length: 4684 seconds
#
# Revision: 0
# Processed by: cddbd v1.5.1PL2 Copyright (c) Steve Scherf et al.
# Submitted via: WhereIsIt 3.53
#
DISCID=22124a16
DTITLE=Людмила Иванова
DYEAR=2000
DGENRE=
TTITLE0=Салам
TTITLE1=Арм шудо
TTITLE2=Шочмо
TTITLE3=Ертыше йоратымаш
TTITLE4=Каешеч
TTITLE5=Садерыште
TTITLE6=Лай мордеш
TTITLE7=Помаш
TTITLE8=Молан
TTITLE9=Пагет
TTITLE10=Ит чарне
TTITLE11=Шертне
TTITLE12=Пеледеш
TTITLE13=Шым колашт
TTITLE14=Шергыжале
TTITLE15=Теле Кас
TTITLE16=Ломбо
TTITLE17=Тэнг
TTITLE18=Пригласи
TTITLE19=Закружило
TTITLE20=Ревнуй
TTITLE21=Аромат любви
EXTD=
EXTT0=
EXTT1=
EXTT2=
EXTT3=
EXTT4=
EXTT5=
EXTT6=
EXTT7=
EXTT8=
EXTT9=
EXTT10=
EXTT11=
EXTT12=
EXTT13=
EXTT14=
EXTT15=
EXTT16=
EXTT17=
EXTT18=
EXTT19=
EXTT20=
EXTT21=
PLAYORDER=
